<svg height="48" viewBox="0 0 48 48" width="48" xmlns="http://www.w3.org/2000/svg"><path d="m0 0h48v48h-48z" fill="none"/><path d="m24 5a19 19 0 1 0 19 19 19 19 0 0 0 -19-19zm0 4a15.1 15.1 0 0 1 9.5 3.4l-21.1 21.1a15 15 0 0 1 11.6-24.5zm0 30a15.1 15.1 0 0 1 -9.5-3.4l21.1-21.1a15 15 0 0 1 -11.6 24.5z"/><path d="m18.7 24.8a1.2 1.2 0 0 0 1-.4 1.5 1.5 0 1 0 -2.1 0 1.5 1.5 0 0 0 1.1.4z"/><path d="m13 29a1.4 1.4 0 0 0 1 .4 1.5 1.5 0 0 0 1.1-.4 1.5 1.5 0 1 0 -2.1 0z"/><path d="m23.3 20.2a1.6 1.6 0 0 0 1.1-.5 1.4 1.4 0 0 0 0-2.1 1.6 1.6 0 0 0 -2.2 0 1.7 1.7 0 0 0 0 2.1 1.6 1.6 0 0 0 1.1.5z"/><path d="m28 15.5a1.4 1.4 0 0 0 1-.4 1.5 1.5 0 1 0 -2.1 0 1.5 1.5 0 0 0 1.1.4z"/><path d="m19 32.9a1.5 1.5 0 0 0 0 2.1 1.4 1.4 0 0 0 1 .4 1.5 1.5 0 0 0 1.1-.4 1.5 1.5 0 0 0 -2.1-2.1z"/><path d="m35 19a1.5 1.5 0 0 0 -2.1 2.1 1.5 1.5 0 0 0 1.1.4 1.4 1.4 0 0 0 1-.4 1.4 1.4 0 0 0 0-2.1z"/><path d="m28.2 23.6a1.7 1.7 0 0 0 0 2.1 1.5 1.5 0 0 0 2.2 0 1.4 1.4 0 0 0 0-2.1 1.6 1.6 0 0 0 -2.2 0z"/><path d="m23.6 28.3a1.4 1.4 0 0 0 0 2.1 1.5 1.5 0 0 0 1.1.4 1.2 1.2 0 0 0 1-.4 1.5 1.5 0 0 0 -2.1-2.1z"/></svg>